# xmcd
#
# Track frame offsets: 
#        150
#        19786
#        41494
#        66799
#        91952
#        123799
#        154191
#        183544
#        207505
#        232850
#
# Disc length: 3257 seconds
#
# Revision: 0
# Processed by: cddbd v1.5.2PL0 Copyright (c) Steve Scherf et al.
# Submitted via: ExactAudioCopy v0.99pb5
#
DISCID=7c0cb70a
DTITLE=Hollie Smith - Long Player
DYEAR=1900
DGENRE=Soul
TTITLE0=Can't Let You Down
TTITLE1=I will Do
TTITLE2=Philosohpy
TTITLE3=So Long
TTITLE4=Provider
TTITLE5=Reprise
TTITLE6=Own It
TTITLE7=What I Say
TTITLE8=Come Here For Me
TTITLE9=Be Whole In Thee
EXTD=
EXTT0=
EXTT1=
EXTT2=
EXTT3=
EXTT4=
EXTT5=
EXTT6=
EXTT7=
EXTT8=
EXTT9=
PLAYORDER=
